<?xml version="1.0" encoding="UTF-8" standalone="no"?>
<svg
   xmlns="http://www.w3.org/2000/svg"
   id="svg29"
   class="logo-text"
   version="1.1"
   viewBox="0 0 123.10571 55.341614"
   height="55.341614"
   width="123.10571">
  <g
     transform="translate(-0.76759022,-10.540129)"
     id="g981">
    <g
       style="opacity:1;fill-rule:evenodd;stroke:none;stroke-width:1;stop-opacity:1"
       transform="matrix(0.61018943,0,0,0.61018943,0.72994504,7.3685358)"
       id="g68">
      <path
         style="opacity:1;fill-rule:nonzero;stop-opacity:1"
         id="Shape"
         d="m 29.1,12.6 -4.6,3.6 c -2.1,-3.2 -5.1,-5 -8.7,-5 -3.3,0 -6.3,1.6 -6.3,5 0,3.1 2.4,4.3 5.8,5.9 l 4.6,2.1 c 6.3,2.9 9.9,6.1 9.9,11.8 0,7.3 -6,12 -13.9,12 C 9,48 3.4,44.5 0.3,39 L 5,35.4 c 2.4,3.5 5.7,6.6 10.9,6.6 4.3,0 7.2,-2.2 7.2,-5.8 0,-3.3 -2.4,-4.5 -6.1,-6.2 L 12.4,27.9 C 7.1,25.4 2.7,22.2 2.7,16.4 2.7,9.6 8.6,5.2 15.8,5.2 c 6,-0.1 10.8,3.1 13.3,7.4 z" />
      <polygon
         style="opacity:1;fill-rule:nonzero;stop-opacity:1"
         points="140.4,41.8 126.4,41.8 126.4,77.3 119.7,77.3 119.7,41.8 105.8,41.8 105.8,35.8 140.4,35.8 "
         id="polygon11"
         transform="translate(-51,-30)" />
      <polygon
         style="opacity:1;fill-rule:nonzero;stop-opacity:1"
         points="178.2,60.6 164,35.8 171.4,35.8 181.6,53.8 191.9,35.8 199.2,35.8 184.9,60.5 184.9,77.3 178.2,77.3 "
         id="polygon13"
         transform="translate(-51,-30)" />
      <polygon
         style="opacity:1;fill-rule:nonzero;stop-opacity:1"
         points="233.7,71.3 233.6,71.3 252.6,71.3 252.6,77.3 227,77.3 227,35.8 233.7,35.8 "
         id="polygon15"
         transform="translate(-51,-30)" />
    </g>
    <g
       style="opacity:1;fill-rule:evenodd;stroke:none;stroke-width:1;stop-opacity:1"
       transform="matrix(0.48106957,0,0,0.48106957,-108.62763,42.790405)"
       id="g75">
      <path
         style="opacity:1;fill-rule:nonzero;stop-opacity:1"
         id="path17"
         d="m 235.2,47.3 h -6.6 V 16.4 h 6.6 z M 236.4,5 c 0,2.4 -2.1,4.3 -4.5,4.3 -2.5,0 -4.5,-1.9 -4.5,-4.3 0,-2.4 2,-4.4 4.5,-4.4 2.5,0 4.5,1.9 4.5,4.4 z" />
      <polygon
         style="opacity:1;fill-rule:nonzero;stop-opacity:1"
         points="316.8,77.3 316.8,35.1 319.1,35.1 344.3,63.7 344.3,35.8 351,35.8 351,78 348.7,78 323.5,49.3 323.5,77.3 "
         id="polygon19"
         transform="translate(-51,-30)" />
      <path
         style="opacity:1;fill-rule:nonzero;stop-opacity:1"
         id="path21"
         d="m 366.7,26.5 c 0,12.1 -8.9,20.8 -22.5,20.8 h -13 V 5.8 h 13 c 13.7,0 22.5,8.5 22.5,20.7 z M 337.9,11.9 v 29.4 h 6.3 c 9.7,0 15.8,-6.2 15.8,-14.8 0,-8.9 -6,-14.6 -15.8,-14.6 z" />
      <polygon
         style="opacity:1;fill-rule:nonzero;stop-opacity:1"
         points="453,71.3 474.3,71.3 474.3,77.3 446.3,77.3 446.3,35.8 473.5,35.8 473.5,41.8 473.6,41.8 453,41.8 453,52.4 468.5,52.4 468.5,58.2 453,58.2 "
         id="polygon23"
         transform="translate(-51,-30)" />
      <polygon
         style="opacity:1;fill-rule:nonzero;stop-opacity:1"
         points="507.6,35.8 516.8,50.5 525.8,35.8 533.4,35.8 520.5,56.1 534.3,77.2 526.6,77.2 526.6,77.3 516.6,61.9 506.6,77.3 499,77.3 513,56.1 499.9,35.8 "
         id="polygon25"
         transform="translate(-51,-30)" />
    </g>
  </g>
</svg>
