<?xml version="1.0" encoding="UTF-8" standalone="no"?>
<svg viewBox="0 0 484 48" version="1.1" 
    xmlns="http://www.w3.org/2000/svg" class="sc-ifAKCX kqqTha">
    <g id="Page-1" stroke="none" stroke-width="1" fill="" fill-rule="evenodd">
        <g id="logo-text" transform="translate(-51.000000, -30.000000)" fill="#000" fill-rule="nonzero" class="logo-text">
            <path d="M80.1,42.6 L75.5,46.2 C73.4,43 70.4,41.2 66.8,41.2 C63.5,41.2 60.5,42.8 60.5,46.2 C60.5,49.3 62.9,50.5 66.3,52.1 L70.9,54.2 C77.2,57.1 80.8,60.3 80.8,66 C80.8,73.3 74.8,78 66.9,78 C60,78 54.4,74.5 51.3,69 L56,65.4 C58.4,68.9 61.7,72 66.9,72 C71.2,72 74.1,69.8 74.1,66.2 C74.1,62.9 71.7,61.7 68,60 L63.4,57.9 C58.1,55.4 53.7,52.2 53.7,46.4 C53.7,39.6 59.6,35.2 66.8,35.2 C72.8,35.1 77.6,38.3 80.1,42.6 Z" id="Shape"></path>
            <polygon id="Shape" points="140.4 41.8 126.4 41.8 126.4 77.3 119.7 77.3 119.7 41.8 105.8 41.8 105.8 35.8 140.4 35.8"></polygon>
            <polygon id="Shape" points="184.9 60.5 184.9 77.3 178.2 77.3 178.2 60.6 164 35.8 171.4 35.8 181.6 53.8 191.9 35.8 199.2 35.8"></polygon>
            <polygon id="Shape" points="233.6 71.3 252.6 71.3 252.6 77.3 227 77.3 227 35.8 233.7 35.8 233.7 71.3"></polygon>
            <path d="M286.2,77.3 L279.6,77.3 L279.6,46.4 L286.2,46.4 L286.2,77.3 Z M287.4,35 C287.4,37.4 285.3,39.3 282.9,39.3 C280.4,39.3 278.4,37.4 278.4,35 C278.4,32.6 280.4,30.6 282.9,30.6 C285.4,30.6 287.4,32.5 287.4,35 Z" id="Shape"></path>
            <polygon id="Shape" points="351 35.8 351 78 348.7 78 323.5 49.3 323.5 77.3 316.8 77.3 316.8 35.1 319.1 35.1 344.3 63.7 344.3 35.8"></polygon>
            <path d="M417.7,56.5 C417.7,68.6 408.8,77.3 395.2,77.3 L382.2,77.3 L382.2,35.8 L395.2,35.8 C408.9,35.8 417.7,44.3 417.7,56.5 Z M388.9,41.9 L388.9,71.3 L395.2,71.3 C404.9,71.3 411,65.1 411,56.5 C411,47.6 405,41.9 395.2,41.9 L388.9,41.9 Z" id="Shape"></path>
            <polygon id="Shape" points="473.6 41.8 453 41.8 453 52.4 468.5 52.4 468.5 58.2 453 58.2 453 71.3 474.3 71.3 474.3 77.3 446.3 77.3 446.3 35.8 473.5 35.8 473.5 41.8"></polygon>
            <polygon id="Shape" points="526.6 77.3 516.6 61.9 506.6 77.3 499 77.3 513 56.1 499.9 35.8 507.6 35.8 516.8 50.5 525.8 35.8 533.4 35.8 520.5 56.1 534.3 77.2 526.6 77.2"></polygon>
        </g>
    </g>
</svg>