<?xml version="1.0" encoding="UTF-8"?>
<svg id="svg30" class="icon-container fill-color" version="1.1" viewBox="0 0 24 24" xmlns="http://www.w3.org/2000/svg">
    <path id="path28" d="m6.998 0c-3.859 0-6.998 3.142-6.998 7.002v10c0 3.859 3.142 6.998 7.002 6.998h10c3.859 0 6.998-3.142 6.998-7.002v-10c0-3.859-3.142-6.998-7.002-6.998zm12.002 4c.552 0 1 .448 1 1s-.448 1-1 1-1-.448-1-1 .448-1 1-1zm-7 2c3.309 0 6 2.691 6 6s-2.691 6-6 6-6-2.691-6-6 2.691-6 6-6zm0 2a4 4 0 00-4 4 4 4 0 004 4 4 4 0 004-4 4 4 0 00-4-4z"/>
</svg>
