<?xml version="1.0" encoding="UTF-8"?>
<svg id="svg12" class="icon-container fill-color" width="18" height="18" version="1.1" viewBox="0 0 18 18" xmlns="http://www.w3.org/2000/svg">
 <path id="path10" d="m5 0c-2.757 0-5 2.243-5 5v8c0 2.757 2.243 5 5 5h8c2.757 0 5-2.243 5-5v-8c0-2.757-2.243-5-5-5zm0 2h8c1.654 0 3 1.346 3 3v8c0 1.654-1.346 3-3 3h-8c-1.654 0-3-1.346-3-3v-8c0-1.654 1.346-3 3-3zm9 1a1 1 0 00-1 1 1 1 0 001 1 1 1 0 001-1 1 1 0 00-1-1zm-5 1c-2.757 0-5 2.243-5 5s2.243 5 5 5 5-2.243 5-5-2.243-5-5-5zm0 2c1.654 0 3 1.346 3 3s-1.346 3-3 3-3-1.346-3-3 1.346-3 3-3z"/>
</svg>
